REM MD5 cb8ddee4eb42caa46c5ced9d5815ede2
FILE "Game no Tatsujin 2 (Japan).bin" BINARY
  TRACK 01 MODE2/2352
    INDEX 01 00:00:00
  TRACK 02 AUDIO
    INDEX 00 01:04:62
    INDEX 01 01:06:62
  TRACK 03 AUDIO
    INDEX 00 02:59:05
    INDEX 01 03:01:05
  TRACK 04 AUDIO
    INDEX 00 04:49:04
    INDEX 01 04:51:04
  TRACK 05 AUDIO
    INDEX 00 06:26:65
    INDEX 01 06:28:65
  TRACK 06 AUDIO
    INDEX 00 08:15:40
    INDEX 01 08:17:40
  TRACK 07 AUDIO
    INDEX 00 10:10:28
    INDEX 01 10:12:28
  TRACK 08 AUDIO
    INDEX 00 11:02:65
    INDEX 01 11:04:65
  TRACK 09 AUDIO
    INDEX 00 11:56:18
    INDEX 01 11:58:18
  TRACK 10 AUDIO
    INDEX 00 13:51:11
    INDEX 01 13:53:11
  TRACK 11 AUDIO
    INDEX 00 15:50:16
    INDEX 01 15:52:16
  TRACK 12 AUDIO
    INDEX 00 17:52:08
    INDEX 01 17:54:08
  TRACK 13 AUDIO
    INDEX 00 20:10:24
    INDEX 01 20:12:24
  TRACK 14 AUDIO
    INDEX 00 21:58:13
    INDEX 01 22:00:13
  TRACK 15 AUDIO
    INDEX 00 23:59:66
    INDEX 01 24:01:66
  TRACK 16 AUDIO
    INDEX 00 26:21:64
    INDEX 01 26:23:64
  TRACK 17 AUDIO
    INDEX 00 27:57:09
    INDEX 01 27:59:09
  TRACK 18 AUDIO
    INDEX 00 28:39:14
    INDEX 01 28:41:14
  TRACK 19 AUDIO
    INDEX 00 30:59:54
    INDEX 01 31:01:54
  TRACK 20 AUDIO
    INDEX 00 32:39:16
    INDEX 01 32:41:16
  TRACK 21 AUDIO
    INDEX 00 33:30:65
    INDEX 01 33:32:65
  TRACK 22 AUDIO
    INDEX 00 35:45:22
    INDEX 01 35:47:22
  TRACK 23 AUDIO
    INDEX 00 37:54:25
    INDEX 01 37:56:25
  TRACK 24 AUDIO
    INDEX 00 38:14:09
    INDEX 01 38:16:09
  TRACK 25 AUDIO
    INDEX 00 38:22:09
    INDEX 01 38:24:09
  TRACK 26 AUDIO
    INDEX 00 38:30:09
    INDEX 01 38:32:09
  TRACK 27 AUDIO
    INDEX 00 38:38:57
    INDEX 01 38:40:57
  TRACK 28 AUDIO
    INDEX 00 38:46:57
    INDEX 01 38:48:57
  TRACK 29 AUDIO
    INDEX 00 38:54:57
    INDEX 01 38:56:57
  TRACK 30 AUDIO
    INDEX 00 39:03:25
    INDEX 01 39:05:25
  TRACK 31 AUDIO
    INDEX 00 39:11:25
    INDEX 01 39:13:25
  TRACK 32 AUDIO
    INDEX 00 39:19:25
    INDEX 01 39:21:25
  TRACK 33 AUDIO
    INDEX 00 39:27:68
    INDEX 01 39:29:68
  TRACK 34 AUDIO
    INDEX 00 39:35:68
    INDEX 01 39:37:68
  TRACK 35 AUDIO
    INDEX 00 39:43:68
    INDEX 01 39:45:68
  TRACK 36 AUDIO
    INDEX 00 39:51:68
    INDEX 01 39:53:68
  TRACK 37 AUDIO
    INDEX 00 40:00:41
    INDEX 01 40:02:41
  TRACK 38 AUDIO
    INDEX 00 40:08:41
    INDEX 01 40:10:41
  TRACK 39 AUDIO
    INDEX 00 40:16:41
    INDEX 01 40:18:41
  TRACK 40 AUDIO
    INDEX 00 40:25:14
    INDEX 01 40:27:14
  TRACK 41 AUDIO
    INDEX 00 40:33:14
    INDEX 01 40:35:14
  TRACK 42 AUDIO
    INDEX 00 40:41:14
    INDEX 01 40:43:14
  TRACK 43 AUDIO
    INDEX 00 40:49:57
    INDEX 01 40:51:57
  TRACK 44 AUDIO
    INDEX 00 40:59:19
    INDEX 01 41:01:19
  TRACK 45 AUDIO
    INDEX 00 41:07:69
    INDEX 01 41:09:69
  TRACK 46 AUDIO
    INDEX 00 41:16:47
    INDEX 01 41:18:47
  TRACK 47 AUDIO
    INDEX 00 41:24:48
    INDEX 01 41:26:48
  TRACK 48 AUDIO
    INDEX 00 41:32:48
    INDEX 01 41:34:48
  TRACK 49 AUDIO
    INDEX 00 41:40:48
    INDEX 01 41:42:48
  TRACK 50 AUDIO
    INDEX 00 41:48:48
    INDEX 01 41:50:48
  TRACK 51 AUDIO
    INDEX 00 41:56:48
    INDEX 01 41:58:48
  TRACK 52 AUDIO
    INDEX 00 42:04:48
    INDEX 01 42:06:48
  TRACK 53 AUDIO
    INDEX 00 42:14:10
    INDEX 01 42:16:10
  TRACK 54 AUDIO
    INDEX 00 44:04:46
    INDEX 01 44:06:46
  TRACK 55 AUDIO
    INDEX 00 45:06:40
    INDEX 01 45:08:40
  TRACK 56 AUDIO
    INDEX 00 45:56:36
    INDEX 01 45:58:36
REM LEADOUT 47:01:01
